<?xml version="1.0" standalone="no"?>
<!DOCTYPE svg PUBLIC "-//W3C//DTD SVG 20010904//EN"
 "http://www.w3.org/TR/2001/REC-SVG-20010904/DTD/svg10.dtd">
<svg version="1.0" xmlns="http://www.w3.org/2000/svg"
 width="1128.000000pt" height="1128.000000pt" viewBox="0 0 1128.000000 1128.000000"
 preserveAspectRatio="xMidYMid meet">
<metadata>
Created by potrace 1.14, written by Peter Selinger 2001-2017
</metadata>
<g transform="translate(0.000000,1128.000000) scale(0.100000,-0.100000)"
fill="#000000" stroke="none">
<path d="M2040 10458 l0 -816 -37 -53 c-25 -37 -47 -89 -68 -164 -30 -105 -34
-111 -70 -132 -55 -31 -135 -39 -180 -17 -41 19 -63 48 -112 145 -26 52 -43
74 -67 86 -30 14 -35 14 -74 -6 -51 -26 -86 -27 -120 -3 -15 10 -48 25 -74 32
-41 11 -56 10 -114 -6 -80 -21 -190 -78 -204 -105 -6 -10 -9 -45 -8 -78 2 -45
-2 -65 -15 -79 -9 -10 -17 -28 -17 -40 0 -38 36 -117 78 -174 47 -62 51 -86
21 -135 -19 -31 -21 -45 -16 -146 4 -97 9 -123 37 -192 30 -72 33 -89 31 -169
-1 -51 -8 -104 -17 -124 -13 -32 -12 -41 7 -101 12 -36 40 -106 62 -156 31
-69 42 -108 48 -170 4 -44 12 -107 19 -140 13 -63 7 -192 -10 -209 -5 -5 -26
-12 -47 -15 -46 -8 -53 -29 -24 -70 25 -35 26 -54 4 -87 -15 -23 -15 -41 -5
-194 7 -93 15 -175 18 -183 3 -8 18 -20 33 -27 32 -13 61 -66 61 -111 0 -56
35 -98 81 -99 24 0 31 -11 75 -107 26 -60 51 -112 56 -118 4 -5 8 -30 8 -56 0
-35 6 -52 25 -73 43 -46 62 -97 52 -135 -11 -43 7 -91 35 -91 19 0 71 -36 124
-85 12 -11 55 -43 95 -70 115 -78 153 -114 160 -155 6 -33 3 -38 -46 -85 -29
-27 -69 -71 -90 -97 -20 -27 -42 -48 -47 -48 -5 0 -51 -29 -102 -64 -51 -34
-104 -66 -118 -69 -28 -7 -68 -72 -68 -112 0 -56 -53 -125 -143 -187 -40 -28
-44 -72 -12 -118 28 -40 28 -73 0 -84 -21 -8 -20 -114 1 -145 11 -16 15 -35
11 -62 -3 -22 0 -52 6 -68 9 -26 7 -34 -16 -68 -21 -30 -27 -51 -27 -90 0 -29
-4 -55 -10 -58 -5 -3 -9 -30 -9 -60 1 -47 -2 -58 -35 -97 -19 -23 -55 -84 -80
-134 -48 -99 -55 -105 -154 -121 l-53 -8 25 -34 c29 -40 33 -63 11 -81 -8 -7
-17 -28 -21 -47 -5 -28 -2 -39 19 -61 39 -43 48 -67 54 -156 4 -62 2 -95 -10
-132 -25 -76 -24 -115 3 -152 28 -38 96 -62 172 -62 68 0 121 -29 154 -85 20
-34 25 -54 20 -76 -3 -17 1 -61 9 -97 21 -89 14 -114 -46 -158 -48 -35 -49
-37 -49 -88 0 -97 -38 -116 -181 -90 -86 16 -88 16 -117 -4 -20 -15 -33 -37
-45 -79 -11 -40 -30 -75 -61 -111 -25 -30 -46 -59 -47 -65 -1 -7 -2 -39 -3
-72 0 -34 -8 -74 -18 -93 -17 -32 -16 -33 5 -41 88 -33 2246 -820 2577 -939
228 -83 858 -311 1400 -507 542 -196 1122 -406 1290 -466 168 -61 436 -161
595 -222 l290 -112 1663 -3 1662 -2 1 3242 c1 1784 1 3246 0 3251 -1 4 -1
1074 -1 2377 l0 2370 -2357 0 c-1297 0 -3144 3 -4105 7 l-1748 6 0 -815z
m1793 507 c-3 -9 -8 -14 -10 -11 -3 3 -33 -9 -67 -26 -33 -16 -56 -25 -51 -20
8 8 121 70 132 72 1 0 0 -7 -4 -15z m3989 1 c6 6 108 -43 108 -51 0 -3 -22 6
-50 20 -64 32 -70 32 -35 -5 16 -16 27 -30 24 -30 -3 0 -23 19 -44 42 -22 23
-33 37 -24 30 9 -6 18 -9 21 -6z m-4182 -100 c0 -2 -12 -11 -27 -20 l-28 -17
24 20 c23 21 31 25 31 17z m4416 -27 c3 -6 -5 -3 -20 6 -14 10 -26 19 -26 22
0 7 39 -17 46 -28z m-106 -39 c12 -16 19 -30 16 -30 -2 0 -14 14 -26 30 -12
17 -19 30 -16 30 2 0 14 -13 26 -30z m-4430 -13 c0 -2 -10 -12 -22 -23 l-23
-19 19 23 c18 21 26 27 26 19z m4504 -97 c30 -56 29 -69 -2 -17 -11 19 -28 47
-38 63 -14 22 -15 26 -3 17 9 -7 28 -35 43 -63z m-4579 32 c-173 -163 -204
-189 -98 -84 63 61 117 112 121 112 4 0 -7 -13 -23 -28z m4786 -19 c13 -16 12
-17 -3 -4 -17 13 -22 21 -14 21 2 0 10 -8 17 -17z m-138 -136 c37 -68 110
-228 105 -232 -2 -2 -35 64 -75 146 -39 82 -70 149 -68 149 2 0 19 -28 38 -63z
m282 3 c10 -11 16 -20 13 -20 -3 0 -13 9 -23 20 -10 11 -16 20 -13 20 3 0 13
-9 23 -20z m55 -65 c13 -14 21 -25 18 -25 -2 0 -15 11 -28 25 -13 14 -21 25
-18 25 2 0 15 -11 28 -25z m-5262 -73 c-35 -43 -76 -93 -91 -112 l-28 -35 22
35 c41 63 145 190 156 190 2 0 -25 -35 -59 -78z m5307 18 c10 -11 16 -20 13
-20 -3 0 -13 9 -23 20 -10 11 -16 20 -13 20 3 0 13 -9 23 -20z m-255 -165 c0
-5 -5 -3 -10 5 -5 8 -10 20 -10 25 0 6 5 3 10 -5 5 -8 10 -19 10 -25z m49
-140 c23 -68 41 -130 40 -137 0 -7 -20 48 -44 122 -49 150 -47 140 -41 140 3
0 23 -56 45 -125z m-5265 65 c-15 -22 -29 -40 -31 -40 -5 0 3 15 29 53 30 43
31 32 2 -13z m-494 -115 c-7 -9 -15 -13 -18 -10 -3 2 1 11 8 20 7 9 15 13 18
10 3 -2 -1 -11 -8 -20z m6636 3 c12 -14 13 -18 3 -10 -9 6 -18 10 -21 7 -2 -3
-5 2 -5 10 0 19 0 19 23 -7z m-6277 -115 c-54 -101 -88 -153 -49 -73 35 71 91
170 96 170 3 0 -19 -44 -47 -97z m-389 83 c0 -2 -8 -10 -17 -17 -16 -13 -17
-12 -4 4 13 16 21 21 21 13z m-116 -146 c-35 -50 -87 -126 -115 -170 -28 -44
-53 -80 -56 -80 -10 0 114 190 184 283 68 88 60 67 -13 -33z m5953 48 c-3 -8
-6 -5 -6 6 -1 11 2 17 5 13 3 -3 4 -12 1 -19z m10 -40 c-3 -8 -6 -5 -6 6 -1
11 2 17 5 13 3 -3 4 -12 1 -19z m21 -73 c0 -16 -2 -15 -8 5 -11 34 -11 60 0
35 5 -11 8 -29 8 -40z m963 38 c13 -16 12 -17 -3 -4 -10 7 -18 15 -18 17 0 8
8 3 21 -13z m-6525 -70 c-8 -15 -15 -25 -16 -21 0 12 23 58 27 54 3 -2 -2 -17
-11 -33z m5571 -25 c-3 -7 -5 -2 -5 12 0 14 2 19 5 13 2 -7 2 -19 0 -25z m10
-50 c-3 -7 -5 -2 -5 12 0 14 2 19 5 13 2 -7 2 -19 0 -25z m1090 -85 c58 -101
79 -141 69 -132 -12 11 -135 230 -127 225 5 -3 31 -45 58 -93z m-1080 35 c-3
-7 -5 -2 -5 12 0 14 2 19 5 13 2 -7 2 -19 0 -25z m21 -103 c0 -25 -2 -24 -9
10 -10 51 -10 92 1 50 4 -16 8 -43 8 -60z m859 43 c-3 -8 -6 -5 -6 6 -1 11 2
17 5 13 3 -3 4 -12 1 -19z m-6557 -25 c-11 -17 -11 -17 -6 0 3 10 6 24 7 30 0
9 2 9 5 0 3 -7 0 -20 -6 -30z m-545 -23 c-14 -27 -28 -50 -30 -50 -3 0 6 23
20 50 14 28 28 50 30 50 3 0 -6 -22 -20 -50z m7112 8 c-3 -8 -6 -5 -6 6 -1 11
2 17 5 13 3 -3 4 -12 1 -19z m-860 -85 c-3 -10 -5 -4 -5 12 0 17 2 24 5 18 2
-7 2 -21 0 -30z m10 -80 c-3 -10 -5 -2 -5 17 0 19 2 27 5 18 2 -10 2 -26 0
-35z m-6356 -30 c-12 -20 -14 -14 -5 12 4 9 9 14 11 11 3 -2 0 -13 -6 -23z
m6366 -60 c-2 -16 -4 -5 -4 22 0 28 2 40 4 28 2 -13 2 -35 0 -50z m870 35 c-3
-7 -5 -2 -5 12 0 14 2 19 5 13 2 -7 2 -19 0 -25z m10 -100 c-2 -13 -4 -5 -4
17 -1 22 1 32 4 23 2 -10 2 -28 0 -40z m-6700 -10 c-3 -7 -5 -2 -5 12 0 14 2
19 5 13 2 -7 2 -19 0 -25z m5830 -65 c-2 -16 -4 -5 -4 22 0 28 2 40 4 28 2
-13 2 -35 0 -50z m-5840 15 c-3 -7 -5 -2 -5 12 0 14 2 19 5 13 2 -7 2 -19 0
-25z m-10 -50 c-3 -7 -5 -2 -5 12 0 14 2 19 5 13 2 -7 2 -19 0 -25z m6730 -75
c-2 -16 -4 -5 -4 22 0 28 2 40 4 28 2 -13 2 -35 0 -50z m-870 -115 c-2 -35 -3
-9 -3 57 0 66 1 94 3 63 2 -32 2 -86 0 -120z m-5870 130 c-3 -7 -5 -2 -5 12 0
14 2 19 5 13 2 -7 2 -19 0 -25z m-10 -65 c-3 -10 -5 -4 -5 12 0 17 2 24 5 18
2 -7 2 -21 0 -30z m-20 -185 c-2 -13 -4 -5 -4 17 -1 22 1 32 4 23 2 -10 2 -28
0 -40z m6760 -85 c-3 -10 -5 -4 -5 12 0 17 2 24 5 18 2 -7 2 -21 0 -30z m-860
-10 c-3 -10 -5 -4 -5 12 0 17 2 24 5 18 2 -7 2 -21 0 -30z m1330 15 c-3 -8 -6
-5 -6 6 -1 11 2 17 5 13 3 -3 4 -12 1 -19z m-7240 -135 c-2 -27 -3 -5 -3 47 0
52 1 74 3 48 2 -27 2 -69 0 -95z m7250 65 c-3 -8 -6 -5 -6 6 -1 11 2 17 5 13
3 -3 4 -12 1 -19z m-7480 -10 c-3 -8 -6 -5 -6 6 -1 11 2 17 5 13 3 -3 4 -12 1
-19z m6140 -40 c-3 -8 -6 -5 -6 6 -1 11 2 17 5 13 3 -3 4 -12 1 -19z m-7016
-25 c-12 -20 -14 -14 -5 12 4 9 9 14 11 11 3 -2 0 -13 -6 -23z m1776 -30 c-3
-10 -5 -2 -5 17 0 19 2 27 5 18 2 -10 2 -26 0 -35z m6590 15 c-3 -7 -5 -2 -5
12 0 14 2 19 5 13 2 -7 2 -19 0 -25z m-8398 -77 c-6 -18 -13 -30 -15 -28 -2 2
1 18 7 36 6 18 13 30 15 28 2 -2 -1 -18 -7 -36z m7038 -38 c-3 -10 -5 -4 -5
12 0 17 2 24 5 18 2 -7 2 -21 0 -30z m1370 -120 c-2 -27 -3 -5 -3 47 0 52 1
74 3 48 2 -27 2 -69 0 -95z m-7270 -15 c-2 -24 -4 -5 -4 42 0 47 2 66 4 43 2
-24 2 -62 0 -85z m-1180 40 c-3 -8 -6 -5 -6 6 -1 11 2 17 5 13 3 -3 4 -12 1
-19z m7070 -45 c-3 -10 -5 -2 -5 17 0 19 2 27 5 18 2 -10 2 -26 0 -35z m-7080
5 c-3 -8 -6 -5 -6 6 -1 11 2 17 5 13 3 -3 4 -12 1 -19z m-20 -90 c-3 -7 -5 -2
-5 12 0 14 2 19 5 13 2 -7 2 -19 0 -25z m7090 0 c-3 -7 -5 -2 -5 12 0 14 2 19
5 13 2 -7 2 -19 0 -25z m1390 0 c-3 -7 -5 -2 -5 12 0 14 2 19 5 13 2 -7 2 -19
0 -25z m-8490 -50 c-3 -7 -5 -2 -5 12 0 14 2 19 5 13 2 -7 2 -19 0 -25z m7090
-20 c-3 -8 -6 -5 -6 6 -1 11 2 17 5 13 3 -3 4 -12 1 -19z m-7100 -30 c-3 -8
-6 -5 -6 6 -1 11 2 17 5 13 3 -3 4 -12 1 -19z m8490 -25 c-3 -10 -5 -4 -5 12
0 17 2 24 5 18 2 -7 2 -21 0 -30z m-8500 -60 c-3 -10 -5 -2 -5 17 0 19 2 27 5
18 2 -10 2 -26 0 -35z m7090 -40 c-3 -10 -5 -4 -5 12 0 17 2 24 5 18 2 -7 2
-21 0 -30z m1400 5 c-3 -7 -5 -2 -5 12 0 14 2 19 5 13 2 -7 2 -19 0 -25z
m-8500 -45 c-3 -10 -5 -2 -5 17 0 19 2 27 5 18 2 -10 2 -26 0 -35z m7090 -5
c-3 -8 -6 -5 -6 6 -1 11 2 17 5 13 3 -3 4 -12 1 -19z m-5810 -10 c-3 -8 -6 -5
-6 6 -1 11 2 17 5 13 3 -3 4 -12 1 -19z m-690 -40 c-3 -8 -6 -5 -6 6 -1 11 2
17 5 13 3 -3 4 -12 1 -19z m7890 -30 c-3 -7 -5 -2 -5 12 0 14 2 19 5 13 2 -7
2 -19 0 -25z m-8490 -65 c-2 -16 -4 -3 -4 27 0 30 2 43 4 28 2 -16 2 -40 0
-55z m8480 15 c-3 -7 -5 -2 -5 12 0 14 2 19 5 13 2 -7 2 -19 0 -25z m-8480
-195 c-2 -16 -4 -3 -4 27 0 30 2 43 4 28 2 -16 2 -40 0 -55z m1330 55 c-3 -8
-6 -5 -6 6 -1 11 2 17 5 13 3 -3 4 -12 1 -19z m-1320 -195 c-3 -10 -5 -2 -5
17 0 19 2 27 5 18 2 -10 2 -26 0 -35z m10 -85 c-3 -7 -5 -2 -5 12 0 14 2 19 5
13 2 -7 2 -19 0 -25z m8314 -75 c-12 -20 -14 -14 -5 12 4 9 9 14 11 11 3 -2 0
-13 -6 -23z m-1430 -150 c-12 -20 -14 -14 -5 12 4 9 9 14 11 11 3 -2 0 -13 -6
-23z m-5951 -243 c6 -11 8 -20 6 -20 -3 0 -10 9 -16 20 -6 11 -8 20 -6 20 3 0
10 -9 16 -20z m50 -82 c15 -21 17 -28 6 -19 -16 13 -41 51 -33 51 2 0 14 -15
27 -32z m7100 8 c0 -2 -8 -10 -17 -17 -16 -13 -17 -12 -4 4 13 16 21 21 21 13z
m-1495 -385 c-21 -43 -29 -39 -8 4 9 19 18 33 21 31 2 -2 -4 -18 -13 -35z
m-6404 -148 c13 -16 12 -17 -3 -4 -10 7 -18 15 -18 17 0 8 8 3 21 -13z m99
-118 c13 -14 21 -25 18 -25 -2 0 -15 11 -28 25 -13 14 -21 25 -18 25 2 0 15
-11 28 -25z m120 -120 c19 -19 32 -35 29 -35 -3 0 -20 16 -39 35 -19 19 -32
35 -29 35 3 0 20 -16 39 -35z m310 -231 c0 -2 -9 0 -20 6 -11 6 -20 13 -20 16
0 2 9 0 20 -6 11 -6 20 -13 20 -16z m110 -60 c0 -2 -13 2 -30 11 -16 9 -30 18
-30 21 0 2 14 -2 30 -11 17 -9 30 -18 30 -21z m7430 32 c0 -2 -8 -10 -17 -17
-16 -13 -17 -12 -4 4 13 16 21 21 21 13z m-2370 -449 c0 -2 -10 -12 -22 -23
l-23 -19 19 23 c18 21 26 27 26 19z m-5410 -364 c0 -8 -9 0 -50 45 l-45 47 48
-45 c26 -24 47 -45 47 -47z m8070 -46 c0 -2 -10 -12 -22 -23 l-23 -19 19 23
c18 21 26 27 26 19z m-7950 -72 c19 -19 32 -35 29 -35 -3 0 -20 16 -39 35 -19
19 -32 35 -29 35 3 0 20 -16 39 -35z m201 -172 c13 -16 12 -17 -3 -4 -10 7
-18 15 -18 17 0 8 8 3 21 -13z m40 -30 c13 -16 12 -17 -3 -4 -10 7 -18 15 -18
17 0 8 8 3 21 -13z m7679 -138 c0 -2 -10 -9 -22 -15 -22 -11 -22 -10 -4 4 21
17 26 19 26 11z m-7430 -31 c0 -2 -9 0 -20 6 -11 6 -20 13 -20 16 0 2 9 0 20
-6 11 -6 20 -13 20 -16z m50 -30 c0 -2 -9 0 -20 6 -11 6 -20 13 -20 16 0 2 9
0 20 -6 11 -6 20 -13 20 -16z m70 -40 c0 -2 -13 2 -30 11 -16 9 -30 18 -30 21
0 2 14 -2 30 -11 17 -9 30 -18 30 -21z m140 -64 c19 -11 31 -19 25 -19 -5 0
-26 8 -45 19 -19 11 -30 19 -25 19 6 0 26 -8 45 -19z m170 -72 c10 -6 7 -7
-10 -2 -14 3 -32 11 -40 16 -10 6 -7 7 10 2 14 -3 32 -11 40 -16z m-297 -5
c-7 -2 -19 -2 -25 0 -7 3 -2 5 12 5 14 0 19 -2 13 -5z m6650 0 c-7 -2 -21 -2
-30 0 -10 3 -4 5 12 5 17 0 24 -2 18 -5z m-6550 -10 c-7 -2 -19 -2 -25 0 -7 3
-2 5 12 5 14 0 19 -2 13 -5z m6450 0 c-7 -2 -21 -2 -30 0 -10 3 -4 5 12 5 17
0 24 -2 18 -5z m-5176 -125 c-3 -8 -6 -5 -6 6 -1 11 2 17 5 13 3 -3 4 -12 1
-19z m-1896 -85 c13 -16 12 -17 -3 -4 -17 13 -22 21 -14 21 2 0 10 -8 17 -17z
m7619 -57 c0 -2 -8 -10 -17 -17 -16 -13 -17 -12 -4 4 13 16 21 21 21 13z
m-5453 -198 c-3 -8 -6 -5 -6 6 -1 11 2 17 5 13 3 -3 4 -12 1 -19z m1874 -135
c-12 -20 -14 -14 -5 12 4 9 9 14 11 11 3 -2 0 -13 -6 -23z m-3501 -8 c14 -8
21 -14 15 -14 -5 0 -21 6 -35 14 -14 8 -20 14 -15 14 6 0 21 -6 35 -14z m3287
-982 c-3 -10 -5 -4 -5 12 0 17 2 24 5 18 2 -7 2 -21 0 -30z m-912 -23 c10 -11
16 -20 13 -20 -3 0 -13 9 -23 20 -10 11 -16 20 -13 20 3 0 13 -9 23 -20z m902
-82 c-2 -13 -4 -5 -4 17 -1 22 1 32 4 23 2 -10 2 -28 0 -40z m843 19 c0 -1
-30 -32 -67 -67 l-68 -65 65 68 c60 62 70 72 70 64z m-1555 -147 c10 -11 16
-20 13 -20 -3 0 -13 9 -23 20 -10 11 -16 20 -13 20 3 0 13 -9 23 -20z m325
-545 c0 -5 -5 -3 -10 5 -5 8 -10 20 -10 25 0 6 5 3 10 -5 5 -8 10 -19 10 -25z
m301 -767 c12 -10 16 -18 11 -18 -15 0 -57 57 -76 104 -25 61 -18 56 15 -9 16
-33 39 -68 50 -77z"/>
</g>
</svg>
